<?xml version="1.0" encoding="UTF-8" standalone="no"?>
<!-- Created with Inkscape (http://www.inkscape.org/) -->

<svg
   width="354.276"
   height="354"
   viewBox="0 0 93.735526 93.662498"
   version="1.1"
   id="svg1"
   inkscape:version="1.3.2 (091e20e, 2023-11-25)"
   sodipodi:docname="logo-with-car (2).svg"
   xmlns:inkscape="http://www.inkscape.org/namespaces/inkscape"
   xmlns:sodipodi="http://sodipodi.sourceforge.net/DTD/sodipodi-0.dtd"
   xmlns="http://www.w3.org/2000/svg"
   xmlns:svg="http://www.w3.org/2000/svg">
  <sodipodi:namedview
     id="namedview1"
     pagecolor="#ffffff"
     bordercolor="#666666"
     borderopacity="1.0"
     inkscape:showpageshadow="2"
     inkscape:pageopacity="0.0"
     inkscape:pagecheckerboard="0"
     inkscape:deskcolor="#d1d1d1"
     inkscape:document-units="mm"
     inkscape:zoom="0.84096521"
     inkscape:cx="377.54237"
     inkscape:cy="46.969838"
     inkscape:window-width="1920"
     inkscape:window-height="1282"
     inkscape:window-x="1554"
     inkscape:window-y="25"
     inkscape:window-maximized="0"
     inkscape:current-layer="g18" />
  <defs
     id="defs1" />
  <g
     inkscape:label="Layer 1"
     inkscape:groupmode="layer"
     id="layer1">
    <g
       id="g18"
       transform="matrix(0.26458333,0,0,0.2644858,-123.61257,-217.50769)">
      <rect
         x="467.20001"
         y="822.40002"
         class="st1"
         width="354.29999"
         height="354.29999"
         id="rect10"
         style="display:inline;fill:#34a853;fill-opacity:1"
         inkscape:label="rect10" />
      <g
         id="g13"
         style="display:inline">
        <g
           id="g12">
          <g
             id="g11">
            <path
               d="m 590.5,1089 c -13.2,-2.4 -26.4,-2.9 -39.3,-1.4 16.4,35.2 52.1,59.7 93.5,59.7 v 0 c 10.5,0 20.6,-1.6 30.2,-4.5 -20.2,-28.4 -50.1,-47.5 -84.4,-53.8 z"
               id="path10"
               style="display:inline" />
            <path
               d="m 645.8,1098.4 c 15.5,10.2 29.1,23.3 40,39.1 0.2,0.3 0.4,0.7 0.6,1 23.9,-10.6 43,-30 53.2,-54.1 -10.7,-4.1 -22.3,-6.3 -34.4,-6.3 -21.5,-0.1 -42.5,7.1 -59.4,20.3 z"
               id="path11" />
          </g>
        </g>
      </g>
      <g
         id="g15">
        <g
           id="g14">
          <path
             d="m 678.5,971.9 -61.1,72.1 h -75.8 v 0.3 0 c 0,11.1 1.8,21.8 5.1,31.9 15.1,-2.1 30.6,-1.8 46,1.1 14.9,2.7 29.1,7.8 42.1,14.7 19.6,-16.7 44.6,-25.8 70.4,-25.8 13.5,0 26.4,2.5 38.4,7 2.7,-9.1 4.1,-18.8 4.1,-28.8 v -0.3 h -8.1 z m -11.2,72 c -1.9,0 -3.4,-1.5 -3.4,-3.4 0,-1.9 1.5,-3.4 3.4,-3.4 1.9,0 3.4,1.5 3.4,3.4 0,1.9 -1.5,3.4 -3.4,3.4 z m 25.1,0 c -1.9,0 -3.4,-1.5 -3.4,-3.4 0,-1.9 1.5,-3.4 3.4,-3.4 1.9,0 3.4,1.5 3.4,3.4 0,1.9 -1.5,3.4 -3.4,3.4 z m 13.1,-3.4 h -7.4 c 0,-3.2 -2.6,-5.7 -5.7,-5.7 -3.2,0 -5.7,2.6 -5.7,5.7 H 673 c 0,-3.2 -2.6,-5.7 -5.7,-5.7 -3.2,0 -5.7,2.6 -5.7,5.7 h -7.4 v -6.1 c 0,-4 3.2,-7.3 7.3,-7.3 h 4.2 l 1.3,-2.5 c 1.7,-3.3 5.1,-5.4 8.9,-5.4 h 8 c 3.7,0 7.2,2.1 8.9,5.4 l 1.3,2.5 h 4.2 c 4,0 7.3,3.2 7.3,7.3 v 6.1 z m 16.5,-3.5 -43.5,-51.3 -40.8,48.2 v -4.1 l 40.8,-48.2 43.5,51.3 z"
             id="path13"
             style="display:inline"
             inkscape:label="path13" />
          <path
             d="m 684.1,1022.8 h -8.5 c -2.4,0 -4.3,1.9 -4.3,4.3 h 17.2 c -0.1,-2.4 -2,-4.3 -4.4,-4.3 z"
             id="path14"
             style="display:inline" />
          <polygon
             points="747.7,1043.9 682.7,967.1 619.4,967.1 619.4,931.7 597.1,916.1 574.8,931.7 574.8,1004.9 541.7,1043.9 541.7,851.9 644.7,923.7 747.7,851.9 "
             id="polygon14" />
        </g>
      </g>
      <g
         id="g17">
        <g
           id="g16">
          <polygon
             class="st2"
             points="606.8,967.1 597.1,978.5 597.1,916.1 619.4,931.7 619.4,967.1 "
             id="polygon15"
             style="fill:#36b253" />
        </g>
      </g>
    </g>
  </g>
</svg>
